<svg xmlns="http://www.w3.org/2000/svg" viewBox="0 0 1968.89 1186.253"><path fill="#fff" d="M1416.879.008c-.43.46-11.227 26.934-23.99 58.834-12.764 31.9-33.777 84.325-46.698 116.5a1119526.166 1119526.166 0 0 0-108.797 271c-16.883 42.075-46.228 115.2-65.21 162.5-18.983 47.3-34.67 86.17-34.862 86.375-.191.206-4.303-3.189-9.139-7.545-33.357-30.046-65.65-50.292-111.793-70.086-31.14-13.358-74.597-27.417-108.818-35.205-5.4-1.229-9.675-2.374-9.5-2.545.175-.17 6.169-2.4 13.318-4.955 61.508-21.975 108.304-46.938 145.713-77.726 11.452-9.425 31.458-29.567 40.147-40.42 26.469-33.062 42.21-70.44 48.806-115.893 1.705-11.744 1.705-59.027 0-70-3.097-19.938-4.384-26.96-6.265-34.216-10.889-41.998-30.102-75.96-60.9-107.649-15.662-16.114-28.35-26.632-46.36-38.434-42.368-27.763-93.114-45.602-152.738-53.695-37.775-5.127-19.34-4.851-348.653-5.226l-306.25-.35v60.07l54.25.006c58.518.006 66.962.564 79.928 5.27 19.322 7.013 31.018 20.247 36.434 41.224 1.712 6.631 1.823 18.757 2.123 229.715l.316 222.715-5.775 1.568c-22.479 6.104-39.65 13.567-55.276 24.022-27.815 18.612-49.906 46.613-64.513 81.773-2.17 5.224-3.188 6.65-4.405 6.172-5.06-1.983-21.327-3.68-35.582-3.713-15.498-.036-22.292.699-35.105 3.795-55.876 13.503-100.977 60.552-116.899 121.953-8.534 32.913-7.625 71.086 2.438 102.32 9.946 30.874 32.033 68.369 58.092 98.624 40.223 46.699 96.812 81.607 155.974 96.217l11.5 2.84-41.75.261-41.75.262v29.404c0 22.593.29 29.522 1.25 29.904v.002c1.916.763 273.472.77 666.5.018l355.25-.68v-55.67l-19.25-.01c-43.862-.02-71.687-4.245-94.726-14.384-10.06-4.427-23.245-12.581-30.404-18.801l-3.881-3.371 9.88-8.563c54.529-47.254 84.771-100.232 95.264-166.873 1.978-12.562 3.362-39.506 2.696-52.5-.59-11.48-1.243-17.683-4.133-39.252l-.703-5.252 191.228.252 191.229.252 16.978 44c9.339 24.2 18.896 48.95 21.238 55a15405.297 15405.297 0 0 1 19.81 51.5c3.76 9.84 11.557 29.964 22.17 57.235 15.129 38.867 15.83 41.19 15.97 52.765.088 7.33-.283 9.326-2.69 14.5-10.785 23.187-49.677 33.5-126.332 33.5h-22.344v56h439v-55.703l-25.25-.578c-33.072-.758-46.397-3.108-62.25-10.977-20.144-9.998-33.914-26.009-43.552-50.638-7.558-19.312-40.9-104.113-52.924-134.604a27338.97 27338.97 0 0 1-22.979-58.5 38481.328 38481.328 0 0 0-25.517-65c-41.448-105.273-67.697-172.094-97.026-247a23161.17 23161.17 0 0 0-22.795-58 18758.657 18758.657 0 0 1-19.66-50 25685.102 25685.102 0 0 0-23.2-59c-6.625-16.775-13.097-33.2-14.382-36.5-4.012-10.305-51.782-131.972-68.906-175.5-8.98-22.825-20.47-52.075-25.535-65-27.742-70.78-47.345-119.071-48.035-118.334zM660.023 91.497c38.845-.505 82.624.371 110.867 2.896 110.93 9.917 159.735 37.762 184.819 105.45 12.309 33.213 16.744 66.18 15.877 118-.665 39.704-3.023 60.684-10.233 91-10.07 42.34-27.842 76.226-52.945 100.952-31.811 31.334-76.63 48.635-130.018 50.192-18.981.553-217.433 1.036-221.75.539l-2.75-.317.004-210.183c.004-224.95-.103-219.896 4.88-232.432 4.22-10.62 10.84-17.477 19.982-20.703 8.51-3.002 42.422-4.89 81.267-5.394zm709.862 182.554c.379-.435 2.072 2.715 3.761 7 1.69 4.286 7.647 19.491 13.239 33.791a60301.88 60301.88 0 0 0 21.742 55.5 26351.626 26351.626 0 0 1 21.502 55c9.974 25.625 12.83 32.91 26.27 67a12882.7 12882.7 0 0 1 16.439 42 23483.056 23483.056 0 0 0 21.521 55 21442.894 21442.894 0 0 1 21.514 55 16010.841 16010.841 0 0 0 21.158 54c6.61 16.775 13.405 34.1 15.1 38.5 1.694 4.4 4.583 11.801 6.42 16.446 1.836 4.644 3.34 8.806 3.34 9.25 0 .443-85.042.804-188.983.804h-188.984l-2.516-4.966c-1.384-2.732-2.518-5.657-2.518-6.502 0-.846 8.955-23.923 19.9-51.284 15.806-39.508 136.699-341.235 144.942-361.748 1.105-2.75 7.287-18.275 13.737-34.5s12.036-29.855 12.416-30.29zM553.86 620.342l117.264.016c132.488.017 144.946.483 175.765 6.553 93.808 18.475 159.456 87.948 175.522 185.75 6.742 41.042 5.878 97.292-2.096 136.504-12.413 61.04-40.093 105.427-84.191 135.005-32.127 21.55-68.765 33.647-120.63 39.832-10.753 1.283-29.079 1.617-102.105 1.864-49.603.167-92.762-.106-97.5-.617-32.04-3.462-51.683-16.882-59.27-40.495l-2.22-6.912-.27-228.75z"/><path fill="#007e3e" d="M172.313 601.728c-17.737-.464-41.766 1.943-54.033 6.028-16.379 5.453-36.121 18.476-46.249 30.51-12.238 14.541-16.714 26.259-24.27 63.523-5.187 25.59-6.784 30.344-12.095 36.021-5.804 6.206-12.289 8.928-24.506 10.284l-9.73 1.08-.961 3.779c-.677 2.666-.624 4.054.178 4.71 1.798 1.473 9.069 3.16 17.435 4.046 13.164 1.393 30.735 1.19 38.992-.451 11.176-2.222 22.81-8.216 30.252-15.59 11.257-11.152 18.016-23.848 28.955-54.38 11.832-33.02 19.575-47.5 30.71-57.425 9.898-8.823 19.399-12.088 35.091-12.057 17.164.035 31.596 5.097 39.26 13.77 5.314 6.014 15.692 20.789 23.647 33.668 8.955 14.5 8.676 14.192 13.488 14.957 2.368.376 5.319.936 6.556 1.244 1.575.392 2.25.116 2.25-.924 0-.817-4.162-7.814-9.25-15.55a11963.589 11963.589 0 0 1-18.068-27.573c-15.093-23.119-28.693-32.98-52.682-38.203-3.845-.837-9.058-1.312-14.97-1.467z"/></svg>